<?xml version="1.0" encoding="utf-8"?>
<!-- Generator: Adobe Illustrator 16.0.0, SVG Export Plug-In . SVG Version: 6.00 Build 0)  -->
<!DOCTYPE svg PUBLIC "-//W3C//DTD SVG 1.1//EN" "http://www.w3.org/Graphics/SVG/1.1/DTD/svg11.dtd">
<svg version="1.1" id="Layer_1" xmlns="http://www.w3.org/2000/svg" xmlns:xlink="http://www.w3.org/1999/xlink" x="0px" y="0px"
	 width="100.667px" height="82px" viewBox="0 0 100.667 82" enable-background="new 0 0 100.667 82" xml:space="preserve">
<g>
	<g>
		<g>
			<g>
				<g>
					<path fill="#FFFFFF" d="M1.84,63.608V50.21h4.72v13.398c0,1.098,0.55,1.535,1.318,1.535c0.879,0,1.426-0.549,1.426-1.535V1.785
						h4.723v61.823c0,3.512-2.745,6.148-6.148,6.148C4.366,69.757,1.84,67.12,1.84,63.608z"/>
					<path fill="#FFFFFF" d="M28.405,1.785h4.833v61.603c0,3.516-2.854,6.369-6.259,6.369c-3.515,0-6.369-2.854-6.369-6.369V1.785
						h4.611v61.603c0,0.877,0.77,1.646,1.758,1.646c0.879,0,1.426-0.877,1.426-1.646V1.785z"/>
					<path fill="#FFFFFF" d="M75.569,1.785h4.832v61.603c0,3.516-2.855,6.369-6.258,6.369c-3.516,0-6.371-2.854-6.371-6.369V1.785
						h4.613v61.603c0,0.877,0.768,1.646,1.758,1.646c0.875,0,1.426-0.877,1.426-1.646V1.785z"/>
					<path fill="#FFFFFF" d="M95.308,41.097c1.646,4.064,3.622,8.457,3.514,13.943v7.578c0,4.064-2.525,7.139-6.37,7.139
						c-3.624,0-6.369-3.074-6.369-7.027V49.44h4.831v13.947c0,0.77,0.551,1.646,1.538,1.646c0.878,0,1.648-0.77,1.648-1.646V55.04
						c0-3.844-1.429-7.795-2.856-11.307l-1.207-2.965c-0.11-0.113-0.219-0.329-0.219-0.441c-1.868-4.279-3.735-8.673-3.735-13.834
						V8.267c0-3.624,2.417-6.811,6.26-6.811c3.515,0,6.04,2.638,6.04,6.148v13.398h-4.721V7.604c0-1.098-0.551-1.428-1.319-1.428
						c-0.878,0-1.429,0.441-1.429,1.428v18.889c0,4.392,1.538,8.455,3.625,12.736L95.308,41.097z"/>
				</g>
			</g>
			<g>
				<path fill="#FFFFFF" d="M5.972,80.64c-0.865,0-1.583-0.264-2.155-0.792S2.96,78.64,2.96,77.808c0-0.837,0.284-1.519,0.854-2.043
					c0.569-0.525,1.289-0.789,2.159-0.789c0.657,0,1.186,0.154,1.588,0.46c0.402,0.307,0.702,0.685,0.898,1.133l-1.428,0.665
					c-0.071-0.219-0.205-0.406-0.402-0.563c-0.197-0.156-0.416-0.234-0.657-0.234c-0.394,0-0.714,0.132-0.96,0.395
					s-0.369,0.588-0.369,0.977s0.123,0.715,0.369,0.977c0.246,0.264,0.566,0.395,0.96,0.395c0.241,0,0.459-0.078,0.657-0.234
					c0.197-0.156,0.331-0.344,0.402-0.563l1.428,0.657c-0.087,0.202-0.197,0.39-0.328,0.562C8,79.773,7.835,79.942,7.638,80.106
					c-0.197,0.164-0.439,0.294-0.726,0.39C6.625,80.591,6.312,80.64,5.972,80.64z"/>
				<path fill="#FFFFFF" d="M14.307,79.848c-0.572,0.528-1.285,0.792-2.138,0.792s-1.566-0.264-2.138-0.792s-0.857-1.208-0.857-2.04
					s0.286-1.512,0.857-2.039c0.572-0.528,1.285-0.793,2.138-0.793s1.566,0.265,2.138,0.793c0.572,0.527,0.858,1.207,0.858,2.039
					S14.879,79.319,14.307,79.848z M11.221,78.784c0.243,0.264,0.559,0.395,0.948,0.395s0.705-0.131,0.948-0.395
					c0.243-0.262,0.365-0.588,0.365-0.977s-0.122-0.714-0.365-0.977c-0.244-0.263-0.56-0.395-0.948-0.395s-0.705,0.132-0.948,0.395
					c-0.244,0.263-0.365,0.588-0.365,0.977S10.978,78.522,11.221,78.784z"/>
				<path fill="#FFFFFF" d="M21.518,80.541h-1.592l-2.02-2.774v2.774h-1.658v-5.475h1.707l1.904,2.594v-2.594h1.658V80.541z"/>
				<path fill="#FFFFFF" d="M28.167,80.541h-1.592l-2.02-2.774v2.774h-1.658v-5.475h1.707l1.904,2.594v-2.594h1.658V80.541z"/>
				<path fill="#FFFFFF" d="M33.699,80.541h-4.153v-5.475h4.153v1.444h-2.496v0.542h2.438v1.444h-2.438v0.6h2.496V80.541z"/>
				<path fill="#FFFFFF" d="M37.646,80.64c-0.865,0-1.583-0.264-2.155-0.792s-0.857-1.208-0.857-2.04
					c0-0.837,0.284-1.519,0.854-2.043c0.569-0.525,1.289-0.789,2.159-0.789c0.657,0,1.186,0.154,1.588,0.46
					c0.402,0.307,0.702,0.685,0.898,1.133l-1.428,0.665c-0.071-0.219-0.205-0.406-0.402-0.563c-0.197-0.156-0.416-0.234-0.657-0.234
					c-0.394,0-0.714,0.132-0.96,0.395s-0.369,0.588-0.369,0.977s0.123,0.715,0.369,0.977c0.246,0.264,0.566,0.395,0.96,0.395
					c0.241,0,0.459-0.078,0.657-0.234c0.197-0.156,0.331-0.344,0.402-0.563l1.428,0.657c-0.087,0.202-0.197,0.39-0.328,0.562
					c-0.131,0.173-0.295,0.342-0.493,0.506c-0.197,0.164-0.439,0.294-0.726,0.39C38.299,80.591,37.986,80.64,37.646,80.64z"/>
				<path fill="#FFFFFF" d="M43.975,80.541h-1.658v-4.03h-1.469v-1.444h4.588v1.444h-1.461V80.541z"/>
				<path fill="#FFFFFF" d="M50.672,80.541h-4.153v-5.475h4.153v1.444h-2.496v0.542h2.438v1.444h-2.438v0.6h2.496V80.541z"/>
				<path fill="#FFFFFF" d="M54.358,80.541h-2.454v-5.475h2.446c0.887,0,1.608,0.242,2.166,0.726
					c0.559,0.484,0.838,1.154,0.838,2.008s-0.279,1.523-0.838,2.011C55.958,80.298,55.239,80.541,54.358,80.541z M54.35,79.097
					c0.398,0,0.719-0.126,0.96-0.378c0.241-0.251,0.361-0.558,0.361-0.919c0-0.389-0.112-0.701-0.337-0.936
					c-0.225-0.236-0.55-0.354-0.977-0.354h-0.796v2.586H54.35z"/>
				<path fill="#F08E22" d="M67.46,80.541h-6.399v-1.844c0.971-0.688,1.685-1.198,2.143-1.526c0.458-0.329,0.84-0.627,1.145-0.893
					c0.306-0.266,0.488-0.458,0.547-0.575c0.059-0.118,0.088-0.255,0.088-0.411c0-0.18-0.086-0.326-0.259-0.44
					c-0.172-0.113-0.388-0.171-0.646-0.171c-0.736,0-1.425,0.271-2.066,0.811l-1.292-1.573c0.423-0.454,0.929-0.788,1.521-1.004
					c0.591-0.216,1.188-0.323,1.791-0.323c1.01,0,1.822,0.253,2.437,0.758s0.922,1.152,0.922,1.943c0,0.548-0.185,1.064-0.552,1.55
					c-0.368,0.485-1.01,1.03-1.926,1.632h2.548V80.541z"/>
				<path fill="#FFFFFF" d="M74.227,80.64c-0.854,0-1.568-0.259-2.146-0.775c-0.576-0.518-0.865-1.203-0.865-2.057
					s0.289-1.539,0.865-2.057c0.578-0.517,1.293-0.775,2.146-0.775c0.602,0,1.104,0.137,1.506,0.41
					c0.402,0.274,0.703,0.613,0.899,1.019l-1.396,0.714c-0.088-0.186-0.221-0.346-0.398-0.48c-0.178-0.134-0.381-0.201-0.611-0.201
					c-0.394,0-0.714,0.132-0.96,0.395s-0.369,0.588-0.369,0.977s0.123,0.715,0.369,0.977c0.246,0.264,0.566,0.395,0.96,0.395
					c0.153,0,0.313-0.025,0.477-0.074s0.29-0.106,0.377-0.172v-0.197h-1.018V77.29h2.668v2.241
					C76.063,80.271,75.229,80.64,74.227,80.64z"/>
				<path fill="#FFFFFF" d="M82.862,80.541h-1.887l-0.756-1.724h-0.6v1.724h-1.657v-5.475h2.922c0.618,0,1.101,0.179,1.448,0.538
					c0.348,0.357,0.521,0.805,0.521,1.342c0,0.426-0.098,0.777-0.291,1.051c-0.194,0.273-0.426,0.476-0.693,0.607L82.862,80.541z
					 M80.629,77.372c0.154,0,0.282-0.036,0.387-0.11c0.104-0.073,0.155-0.182,0.155-0.324c0-0.137-0.052-0.241-0.155-0.315
					c-0.104-0.074-0.232-0.111-0.387-0.111h-1.01v0.861H80.629z"/>
				<path fill="#FFFFFF" d="M88.858,79.848c-0.572,0.528-1.285,0.792-2.139,0.792s-1.566-0.264-2.138-0.792s-0.857-1.208-0.857-2.04
					s0.286-1.512,0.857-2.039c0.571-0.528,1.284-0.793,2.138-0.793s1.566,0.265,2.139,0.793c0.572,0.527,0.857,1.207,0.857,2.039
					S89.43,79.319,88.858,79.848z M85.772,78.784c0.243,0.264,0.559,0.395,0.947,0.395s0.705-0.131,0.949-0.395
					c0.242-0.262,0.365-0.588,0.365-0.977s-0.123-0.714-0.365-0.977c-0.244-0.263-0.561-0.395-0.949-0.395s-0.704,0.132-0.947,0.395
					c-0.244,0.263-0.365,0.588-0.365,0.977S85.528,78.522,85.772,78.784z"/>
				<path fill="#FFFFFF" d="M96.553,80.541h-1.74l-0.706-3.103l-0.706,3.103h-1.74l-1.567-5.475h1.854l0.707,3.349l0.828-3.349
					h1.248l0.829,3.349l0.698-3.349h1.862L96.553,80.541z"/>
			</g>
		</g>
	</g>
	<g>
		<g>
			<g>
				<rect x="57.67" y="43.234" fill="#FFFFFF" width="5.234" height="5.737"/>
				<rect x="57.67" y="53.958" fill="#FFFFFF" width="5.234" height="14.959"/>
			</g>
		</g>
		<polygon fill="#F08E22" points="57.704,1.36 44.945,1.36 39.692,1.36 39.692,6.614 39.692,63.663 39.692,68.917 44.945,68.917 
			55.452,68.917 55.452,63.663 44.945,63.663 44.945,6.614 57.704,6.614 57.704,41.144 62.958,41.144 62.958,6.614 62.958,1.36 		
			"/>
	</g>
</g>
</svg>
